PathFileType	4	(X/Y/Z)	Walk7.trc
DataRate	CameraRate	NumFrames	NumMarkers	Units	OrigDataRate	OrigDataStartFrame	OrigNumFrames
200.000000	200.000000	6	61	mm	200.000000	772	852
Frame#	Times		LowerBodyModelVer		LFHD		RFHD		RACR1		RUA1		RCAR		LElbow		RFA1		RASI		LACR1		LLFC		RWRU		LUA1		LTH3		LTB1		LMT1		RTH2		LMT5		LTB3		LTB4		LToe		LTB2		LTH2		LTH4		CLAV		RLFC		STRN		LLMAL		RBHD		LTH1		RTH3		LFA1		RBack		C7		LWRU		LPSI		RMT5		RMT1		LBHD		LCAR		RTH4		RCAL		RTH1		RTB2		RToe		RLMAL		LASI		RPSI		SACR		RTB3		LWRR		RTB1		RTB4		RMMAL		LMMAL		RElbowM		RElbow		T10		RWRR		LCAL		LElbowM
			X1	Y1	Z1	X2	Y2	Z2	X3	Y3	Z3	X4	Y4	Z4	X5	Y5	Z5	X6	Y6	Z6	X7	Y7	Z7	X8	Y8	Z8	X9	Y9	Z9	X10	Y10	Z10	X11	Y11	Z11	X12	Y12	Z12	X13	Y13	Z13	X14	Y14	Z14	X15	Y15	Z15	X16	Y16	Z16	X17	Y17	Z17	X18	Y18	Z18	X19	Y19	Z19	X20	Y20	Z20	X21	Y21	Z21	X22	Y22	Z22	X23	Y23	Z23	X24	Y24	Z24	X25	Y25	Z25	X26	Y26	Z26	X27	Y27	Z27	X28	Y28	Z28	X29	Y29	Z29	X30	Y30	Z30	X31	Y31	Z31	X32	Y32	Z32	X33	Y33	Z33	X34	Y34	Z34	X35	Y35	Z35	X36	Y36	Z36	X37	Y37	Z37	X38	Y38	Z38	X39	Y39	Z39	X40	Y40	Z40	X41	Y41	Z41	X42	Y42	Z42	X43	Y43	Z43	X44	Y44	Z44	X45	Y45	Z45	X46	Y46	Z46	X47	Y47	Z47	X48	Y48	Z48	X49	Y49	Z49	X50	Y50	Z50	X51	Y51	Z51	X52	Y52	Z52	X53	Y53	Z53	X54	Y54	Z54	X55	Y55	Z55	X56	Y56	Z56	X57	Y57	Z57	X58	Y58	Z58	X59	Y59	Z59	X60	Y60	Z60	X61	Y61	Z61

772	3.86	9	2014	4	714.79	1547.6	-50.867	714.13	1541.6	47.271	580.34	1359.5	163.35	554.68	1217.3	255.52	620.76	777.85	334.55	440.74	1057.4	-284.37	588.78	934.28	314.91	645.17	936.43	158.51	564.95	1336.1	-196.49	680.92	490.77	-162.38	578.88	830.05	350.29	521.54	1190.8	-265.07	687.1	567.32	-176.71	720.67	336.97	-62.521	805.55	35.683	-54.324	593.46	608.39	181.7	791.51	26.333	-144.94	712.1	166.25	-74.192	713.05	251.93	-69.68	846.49	32.532	-52.041	713.75	257	-131.7	712.83	669.07	-172.31	667.29	648.51	-205.76	642.55	1318.4	-17.413	498.99	443.87	179.53	704.26	1199.1	-11.657	673.03	69.427	-139.22	544.64	1559.5	55.675	650.17	727.55	-232.1	520.38	533.1	187.46	458.66	925.85	-320.47	433	1301.9	101.4	487.41	1402.2	-0.27917	399.16	820.08	-341.28	404.4	966.79	-107.75	330.3	29.111	169.01	348.53	39.757	82.119	562.12	1553.7	-78.786	422.73	765.27	-349.07	538.57	615.82	199.97	191.71	126.5	124.91	567.1	696.04	212.4	413.69	276.16	171.85	386.88	28.957	89.621	254.88	128.1	170.12	679.27	940.96	-179.21	390.76	964.98	27.337	397.58	965.89	-40.208	364.92	197.44	116.81	459.69	803.16	-298.8	485.55	320.54	106.06	481.43	272.28	101.39	277.42	128.18	86.233	681.17	71.674	-55.443	472.44	1038.5	225.98	517.65	1058.4	304.76	422.47	1072.2	-13.194	613.27	830.17	283.66	618	29.35	-101.31	451	1021.4	-181.8
773	3.865	9	2014	4	719.67	1548.1	-52.279	718.85	1542.2	45.864	584.74	1360.5	161.76	558.49	1218.4	253.93	622.74	778.32	332.79	446.56	1057.7	-285.51	591.49	934.99	313.16	650.12	938.06	156.99	569.88	1336.8	-197.88	683.49	490.87	-163.29	581.02	830.73	348.5	527.14	1191.3	-266.33	689.81	567.79	-178.32	722.69	336.79	-63.269	805.56	35.523	-54.368	600.57	609.29	181.97	791.63	26.248	-145.16	712.67	166.14	-74.361	714.31	251.82	-70.161	846.61	32.136	-52.097	715.17	256.71	-132.2	717.22	669.1	-173.13	671.34	649.51	-206.76	647.14	1319.2	-18.851	507.55	444.17	180.21	708.77	1200.2	-13.478	673.24	69.394	-139.41	549.37	1560.4	53.974	655.59	728.99	-232.62	528.16	533.4	187.9	464.63	926.05	-321.13	437.38	1303	99.88	492.03	1403	-1.9255	405.24	820.19	-341.94	409.06	967.4	-108.27	331.85	30.295	168.88	349.97	40.433	82.271	567.07	1554.5	-80.436	428.78	765.27	-349.32	545.52	616.45	200.26	196.51	132.55	125.36	573.16	696.94	212.33	420.43	277.62	172.55	387.63	28.895	89.751	259.5	132.12	170.6	684.16	943.08	-180.63	395.44	965.39	26.785	402.25	966.39	-40.74	370.66	199.74	117.23	465.56	803.47	-299.13	493.14	320.85	106.99	488.69	274.33	100.51	282.12	131.8	86.809	681.22	71.742	-55.739	476.11	1039.8	223.59	520.8	1059.3	302.72	427.13	1072.9	-14.16	615.74	830.82	281.98	618	29.397	-101.5	456.35	1022	-182.78
774	3.87	9	2014	4	724.54	1548.6	-53.649	723.55	1542.9	44.499	589.08	1361.7	160.2	562.27	1219.5	252.4	624.67	778.81	331	452.41	1058	-286.66	594.16	935.74	311.42	655.02	939.78	155.57	574.78	1337.6	-199.23	685.74	490.94	-164.22	583.12	831.45	346.71	532.75	1191.9	-267.57	692.19	568.14	-179.93	724.54	336.63	-64.045	805.55	35.439	-54.422	607.73	610.23	182.26	791.72	26.196	-145.35	713.19	166.06	-74.566	715.45	251.74	-70.675	846.69	31.867	-52.168	716.41	256.45	-132.72	721.3	668.98	-174.14	675.05	650.33	-207.84	651.72	1320.1	-20.246	516.28	444.47	180.89	713.25	1201.3	-15.256	673.4	69.362	-139.61	554.09	1561.4	52.314	660.63	730.22	-233.27	536.03	533.72	188.37	470.68	926.33	-321.8	441.73	1304.2	98.351	496.59	1403.9	-3.5584	411.47	820.34	-342.64	413.68	968.05	-108.75	333.77	31.711	168.8	351.75	41.22	82.471	572.01	1555.3	-82.046	434.98	765.32	-349.6	552.49	617.12	200.59	201.62	138.56	125.77	579.21	697.88	212.29	427.38	279.1	173.2	388.72	28.868	89.945	264.43	136.19	171.02	688.98	945.28	-181.93	400.09	965.85	26.248	406.89	966.95	-41.252	376.64	202.1	117.57	471.54	803.87	-299.51	500.91	321.21	107.9	495.73	276.33	99.717	287.07	135.43	87.321	681.25	71.84	-56.016	479.75	1041	221.22	523.91	1060.3	300.71	431.78	1073.7	-15.099	618.16	831.5	280.29	617.98	29.421	-101.68	461.66	1022.7	-183.77
775	3.875	9	2014	4	729.39	1549.2	-54.975	728.24	1543.5	43.176	593.35	1362.8	158.68	566.01	1220.7	250.94	626.55	779.3	329.19	458.28	1058.4	-287.83	596.79	936.52	309.7	659.85	941.54	154.24	579.63	1338.5	-200.56	687.68	490.98	-165.16	585.2	832.19	344.93	538.39	1192.4	-268.79	694.26	568.37	-181.52	726.23	336.5	-64.831	805.52	35.412	-54.482	614.91	611.22	182.58	791.78	26.167	-145.52	713.65	166.01	-74.804	716.47	251.68	-71.213	846.74	31.699	-52.249	717.49	256.2	-133.27	725.08	668.73	-175.32	678.4	650.97	-208.98	656.27	1321.1	-21.598	525.13	444.79	181.56	717.72	1202.4	-16.99	673.53	69.331	-139.8	558.8	1562.3	50.696	665.28	731.24	-234.04	543.97	534.07	188.85	476.81	926.66	-322.51	446.04	1305.4	96.812	501.11	1404.7	-5.1812	417.83	820.53	-343.4	418.28	968.75	-109.21	336.09	33.364	168.78	353.91	42.131	82.736	576.94	1556.1	-83.614	441.33	765.42	-349.92	559.47	617.81	200.95	207.03	144.47	126.14	585.25	698.84	212.27	434.52	280.6	173.8	390.2	28.885	90.232	269.65	140.27	171.36	693.73	947.55	-183.09	404.73	966.34	25.72	411.5	967.55	-41.746	382.83	204.49	117.83	477.63	804.36	-299.95	508.85	321.62	108.77	502.52	278.28	99.028	292.28	139.05	87.759	681.26	71.963	-56.27	483.36	1042.4	218.88	526.98	1061.4	298.74	436.41	1074.4	-16.012	620.53	832.22	278.61	617.95	29.424	-101.87	466.94	1023.5	-184.76
776	3.88	9	2014	4	734.24	1549.8	-56.258	732.92	1544.1	41.897	597.55	1364	157.19	569.73	1222	249.53	628.38	779.79	327.35	464.16	1058.9	-289.02	599.4	937.32	308.01	664.63	943.33	153.04	584.46	1339.4	-201.85	689.35	491	-166.09	587.24	832.93	343.16	544.03	1193.1	-270.01	696.04	568.48	-183.05	727.75	336.38	-65.611	805.48	35.429	-54.545	622.11	612.26	182.92	791.82	26.155	-145.66	714.06	165.99	-75.07	717.4	251.65	-71.761	846.76	31.61	-52.335	718.42	255.99	-133.82	728.57	668.34	-176.63	681.44	651.44	-210.17	660.81	1322	-22.907	534.07	445.14	182.22	722.17	1203.6	-18.677	673.63	69.303	-140	563.5	1563.3	49.124	669.58	732.03	-234.92	551.96	534.43	189.33	483.02	927.04	-323.24	450.32	1306.5	95.261	505.58	1405.6	-6.7959	424.32	820.75	-344.21	422.85	969.48	-109.66	338.84	35.249	168.85	356.51	43.173	83.083	581.86	1557	-85.137	447.83	765.55	-350.28	566.46	618.52	201.32	212.72	150.23	126.43	591.28	699.83	212.28	441.83	282.14	174.34	392.13	28.957	90.641	275.15	144.35	171.63	698.42	949.86	-184.11	409.34	966.87	25.2	416.1	968.18	-42.229	389.23	206.9	118	483.83	804.93	-300.45	516.91	322.1	109.58	509.06	280.16	98.465	297.74	142.63	88.116	681.25	72.106	-56.499	486.95	1043.7	216.58	530.02	1062.4	296.82	441.03	1075.1	-16.898	622.86	832.96	276.93	617.91	29.412	-102.05	472.16	1024.3	-185.77
777	3.885	9	2014	4	739.07	1550.4	-57.495	737.58	1544.8	40.664	601.68	1365.2	155.74	573.4	1223.3	248.19	630.17	780.27	325.49	470.06	1059.4	-290.23	601.97	938.14	306.35	669.34	945.12	151.96	589.25	1340.3	-203.12	690.8	490.97	-167.01	589.27	833.69	341.4	549.69	1193.7	-271.21	697.57	568.48	-184.5	729.1	336.29	-66.368	805.42	35.475	-54.61	629.3	613.35	183.25	791.84	26.153	-145.78	714.44	165.99	-75.358	718.22	251.62	-72.31	846.77	31.582	-52.424	719.21	255.79	-134.38	731.79	667.83	-178.05	684.19	651.73	-211.36	665.32	1323	-24.175	543.09	445.52	182.85	726.6	1204.9	-20.316	673.7	69.276	-140.19	568.19	1564.2	47.599	673.53	732.6	-235.9	559.98	534.83	189.81	489.29	927.47	-324.01	454.56	1307.7	93.698	510.02	1406.4	-8.4037	430.93	820.98	-345.07	427.41	970.25	-110.09	342.05	37.355	169.01	359.61	44.348	83.527	586.76	1557.8	-86.614	454.47	765.71	-350.69	573.43	619.24	201.67	218.7	155.79	126.61	597.29	700.83	212.3	449.3	283.7	174.81	394.59	29.095	91.204	280.91	148.39	171.81	703.04	952.18	-184.98	413.93	967.43	24.684	420.67	968.84	-42.704	395.83	209.3	118.1	490.12	805.58	-301.02	525.09	322.65	110.33	515.34	281.95	98.047	303.45	146.15	88.387	681.24	72.261	-56.703	490.52	1045.1	214.34	533.04	1063.5	294.95	445.63	1075.9	-17.76	625.15	833.71	275.26	617.86	29.385	-102.23	477.34	1025.1	-186.8
